<mxfile host="Electron" modified="2024-10-11T15:44:23.918Z" agent="Mozilla/5.0 (Windows NT 10.0; Win64; x64) AppleWebKit/537.36 (KHTML, like Gecko) draw.io/22.1.2 Chrome/114.0.5735.289 Electron/25.9.4 Safari/537.36" etag="Rozdx3rmlw4CD9cXaWyp" version="22.1.2" type="device">
  <diagram name="Database" id="RuvUTN3hvEDB6UnUGDsv">
    <mxGraphModel dx="5342" dy="1272" grid="1" gridSize="10" guides="1" tooltips="1" connect="1" arrows="1" fold="1" page="1" pageScale="1" pageWidth="3300" pageHeight="4681" math="0" shadow="0">
      <root>
        <mxCell id="0" />
        <mxCell id="1" parent="0" />
        <mxCell id="Nd7j8I0GEhE5ctY-Owcq-1" value="Account" style="swimlane;fontStyle=0;childLayout=stackLayout;horizontal=1;startSize=30;horizontalStack=0;resizeParent=1;resizeParentMax=0;resizeLast=0;collapsible=1;marginBottom=0;whiteSpace=wrap;html=1;fontSize=14;" vertex="1" parent="1">
          <mxGeometry x="880" y="520" width="140" height="240" as="geometry" />
        </mxCell>
        <mxCell id="Nd7j8I0GEhE5ctY-Owcq-2" value="id" style="text;strokeColor=none;fillColor=none;align=left;verticalAlign=middle;spacingLeft=4;spacingRight=4;overflow=hidden;points=[[0,0.5],[1,0.5]];portConstraint=eastwest;rotatable=0;whiteSpace=wrap;html=1;fontSize=14;" vertex="1" parent="Nd7j8I0GEhE5ctY-Owcq-1">
          <mxGeometry y="30" width="140" height="30" as="geometry" />
        </mxCell>
        <mxCell id="Nd7j8I0GEhE5ctY-Owcq-11" value="Name" style="text;strokeColor=none;fillColor=none;align=left;verticalAlign=middle;spacingLeft=4;spacingRight=4;overflow=hidden;points=[[0,0.5],[1,0.5]];portConstraint=eastwest;rotatable=0;whiteSpace=wrap;html=1;fontSize=14;" vertex="1" parent="Nd7j8I0GEhE5ctY-Owcq-1">
          <mxGeometry y="60" width="140" height="30" as="geometry" />
        </mxCell>
        <mxCell id="Nd7j8I0GEhE5ctY-Owcq-12" value="status" style="text;strokeColor=none;fillColor=none;align=left;verticalAlign=middle;spacingLeft=4;spacingRight=4;overflow=hidden;points=[[0,0.5],[1,0.5]];portConstraint=eastwest;rotatable=0;whiteSpace=wrap;html=1;fontSize=14;" vertex="1" parent="Nd7j8I0GEhE5ctY-Owcq-1">
          <mxGeometry y="90" width="140" height="30" as="geometry" />
        </mxCell>
        <mxCell id="Nd7j8I0GEhE5ctY-Owcq-13" value="image" style="text;strokeColor=none;fillColor=none;align=left;verticalAlign=middle;spacingLeft=4;spacingRight=4;overflow=hidden;points=[[0,0.5],[1,0.5]];portConstraint=eastwest;rotatable=0;whiteSpace=wrap;html=1;fontSize=14;" vertex="1" parent="Nd7j8I0GEhE5ctY-Owcq-1">
          <mxGeometry y="120" width="140" height="30" as="geometry" />
        </mxCell>
        <mxCell id="Nd7j8I0GEhE5ctY-Owcq-14" value="User" style="text;strokeColor=none;fillColor=none;align=left;verticalAlign=middle;spacingLeft=4;spacingRight=4;overflow=hidden;points=[[0,0.5],[1,0.5]];portConstraint=eastwest;rotatable=0;whiteSpace=wrap;html=1;fontSize=14;" vertex="1" parent="Nd7j8I0GEhE5ctY-Owcq-1">
          <mxGeometry y="150" width="140" height="30" as="geometry" />
        </mxCell>
        <mxCell id="Nd7j8I0GEhE5ctY-Owcq-15" value="Password" style="text;strokeColor=none;fillColor=none;align=left;verticalAlign=middle;spacingLeft=4;spacingRight=4;overflow=hidden;points=[[0,0.5],[1,0.5]];portConstraint=eastwest;rotatable=0;whiteSpace=wrap;html=1;fontSize=14;" vertex="1" parent="Nd7j8I0GEhE5ctY-Owcq-1">
          <mxGeometry y="180" width="140" height="30" as="geometry" />
        </mxCell>
        <mxCell id="Nd7j8I0GEhE5ctY-Owcq-16" value="Email" style="text;strokeColor=none;fillColor=none;align=left;verticalAlign=middle;spacingLeft=4;spacingRight=4;overflow=hidden;points=[[0,0.5],[1,0.5]];portConstraint=eastwest;rotatable=0;whiteSpace=wrap;html=1;fontSize=14;" vertex="1" parent="Nd7j8I0GEhE5ctY-Owcq-1">
          <mxGeometry y="210" width="140" height="30" as="geometry" />
        </mxCell>
        <mxCell id="Nd7j8I0GEhE5ctY-Owcq-19" value="Group" style="swimlane;fontStyle=0;childLayout=stackLayout;horizontal=1;startSize=30;horizontalStack=0;resizeParent=1;resizeParentMax=0;resizeLast=0;collapsible=1;marginBottom=0;whiteSpace=wrap;html=1;fontSize=14;" vertex="1" parent="1">
          <mxGeometry x="1260" y="940" width="140" height="150" as="geometry" />
        </mxCell>
        <mxCell id="Nd7j8I0GEhE5ctY-Owcq-20" value="id" style="text;strokeColor=none;fillColor=none;align=left;verticalAlign=middle;spacingLeft=4;spacingRight=4;overflow=hidden;points=[[0,0.5],[1,0.5]];portConstraint=eastwest;rotatable=0;whiteSpace=wrap;html=1;fontSize=14;" vertex="1" parent="Nd7j8I0GEhE5ctY-Owcq-19">
          <mxGeometry y="30" width="140" height="30" as="geometry" />
        </mxCell>
        <mxCell id="Nd7j8I0GEhE5ctY-Owcq-21" value="Name" style="text;strokeColor=none;fillColor=none;align=left;verticalAlign=middle;spacingLeft=4;spacingRight=4;overflow=hidden;points=[[0,0.5],[1,0.5]];portConstraint=eastwest;rotatable=0;whiteSpace=wrap;html=1;fontSize=14;" vertex="1" parent="Nd7j8I0GEhE5ctY-Owcq-19">
          <mxGeometry y="60" width="140" height="30" as="geometry" />
        </mxCell>
        <mxCell id="Nd7j8I0GEhE5ctY-Owcq-82" value="Type: Group" style="text;strokeColor=none;fillColor=none;align=left;verticalAlign=middle;spacingLeft=4;spacingRight=4;overflow=hidden;points=[[0,0.5],[1,0.5]];portConstraint=eastwest;rotatable=0;whiteSpace=wrap;html=1;fontSize=14;" vertex="1" parent="Nd7j8I0GEhE5ctY-Owcq-19">
          <mxGeometry y="90" width="140" height="30" as="geometry" />
        </mxCell>
        <mxCell id="Nd7j8I0GEhE5ctY-Owcq-22" value="CreateAt" style="text;strokeColor=none;fillColor=none;align=left;verticalAlign=middle;spacingLeft=4;spacingRight=4;overflow=hidden;points=[[0,0.5],[1,0.5]];portConstraint=eastwest;rotatable=0;whiteSpace=wrap;html=1;fontSize=14;" vertex="1" parent="Nd7j8I0GEhE5ctY-Owcq-19">
          <mxGeometry y="120" width="140" height="30" as="geometry" />
        </mxCell>
        <mxCell id="Nd7j8I0GEhE5ctY-Owcq-25" value="Members" style="swimlane;fontStyle=0;childLayout=stackLayout;horizontal=1;startSize=30;horizontalStack=0;resizeParent=1;resizeParentMax=0;resizeLast=0;collapsible=1;marginBottom=0;whiteSpace=wrap;html=1;fontSize=14;" vertex="1" parent="1">
          <mxGeometry x="1170" y="610" width="140" height="90" as="geometry" />
        </mxCell>
        <mxCell id="Nd7j8I0GEhE5ctY-Owcq-26" value="id" style="text;strokeColor=none;fillColor=none;align=left;verticalAlign=middle;spacingLeft=4;spacingRight=4;overflow=hidden;points=[[0,0.5],[1,0.5]];portConstraint=eastwest;rotatable=0;whiteSpace=wrap;html=1;fontSize=14;" vertex="1" parent="Nd7j8I0GEhE5ctY-Owcq-25">
          <mxGeometry y="30" width="140" height="30" as="geometry" />
        </mxCell>
        <mxCell id="Nd7j8I0GEhE5ctY-Owcq-27" value="Role" style="text;strokeColor=none;fillColor=none;align=left;verticalAlign=middle;spacingLeft=4;spacingRight=4;overflow=hidden;points=[[0,0.5],[1,0.5]];portConstraint=eastwest;rotatable=0;whiteSpace=wrap;html=1;fontSize=14;" vertex="1" parent="Nd7j8I0GEhE5ctY-Owcq-25">
          <mxGeometry y="60" width="140" height="30" as="geometry" />
        </mxCell>
        <mxCell id="Nd7j8I0GEhE5ctY-Owcq-29" value="" style="endArrow=none;html=1;rounded=0;exitX=0.514;exitY=0.984;exitDx=0;exitDy=0;exitPerimeter=0;fontSize=14;" edge="1" parent="1" source="Nd7j8I0GEhE5ctY-Owcq-27" target="Nd7j8I0GEhE5ctY-Owcq-19">
          <mxGeometry width="50" height="50" relative="1" as="geometry">
            <mxPoint x="899.1600000000001" y="399.65" as="sourcePoint" />
            <mxPoint x="1110.1599999999999" y="334.65" as="targetPoint" />
          </mxGeometry>
        </mxCell>
        <mxCell id="Nd7j8I0GEhE5ctY-Owcq-30" value="" style="endArrow=none;html=1;rounded=0;entryX=0;entryY=0.5;entryDx=0;entryDy=0;fontSize=14;" edge="1" parent="1" source="Nd7j8I0GEhE5ctY-Owcq-1" target="Nd7j8I0GEhE5ctY-Owcq-26">
          <mxGeometry width="50" height="50" relative="1" as="geometry">
            <mxPoint x="982" y="551" as="sourcePoint" />
            <mxPoint x="1140" y="537" as="targetPoint" />
          </mxGeometry>
        </mxCell>
        <mxCell id="Nd7j8I0GEhE5ctY-Owcq-31" value="Message" style="swimlane;fontStyle=0;childLayout=stackLayout;horizontal=1;startSize=30;horizontalStack=0;resizeParent=1;resizeParentMax=0;resizeLast=0;collapsible=1;marginBottom=0;whiteSpace=wrap;html=1;fontSize=14;" vertex="1" parent="1">
          <mxGeometry x="790" y="1210" width="210" height="210" as="geometry" />
        </mxCell>
        <mxCell id="Nd7j8I0GEhE5ctY-Owcq-32" value="id" style="text;strokeColor=none;fillColor=none;align=left;verticalAlign=middle;spacingLeft=4;spacingRight=4;overflow=hidden;points=[[0,0.5],[1,0.5]];portConstraint=eastwest;rotatable=0;whiteSpace=wrap;html=1;fontSize=14;" vertex="1" parent="Nd7j8I0GEhE5ctY-Owcq-31">
          <mxGeometry y="30" width="210" height="30" as="geometry" />
        </mxCell>
        <mxCell id="Nd7j8I0GEhE5ctY-Owcq-33" value="from" style="text;strokeColor=none;fillColor=none;align=left;verticalAlign=middle;spacingLeft=4;spacingRight=4;overflow=hidden;points=[[0,0.5],[1,0.5]];portConstraint=eastwest;rotatable=0;whiteSpace=wrap;html=1;fontSize=14;" vertex="1" parent="Nd7j8I0GEhE5ctY-Owcq-31">
          <mxGeometry y="60" width="210" height="30" as="geometry" />
        </mxCell>
        <mxCell id="Nd7j8I0GEhE5ctY-Owcq-41" value="Response mess( null)" style="text;strokeColor=none;fillColor=none;align=left;verticalAlign=middle;spacingLeft=4;spacingRight=4;overflow=hidden;points=[[0,0.5],[1,0.5]];portConstraint=eastwest;rotatable=0;whiteSpace=wrap;html=1;fontSize=14;" vertex="1" parent="Nd7j8I0GEhE5ctY-Owcq-31">
          <mxGeometry y="90" width="210" height="30" as="geometry" />
        </mxCell>
        <mxCell id="Nd7j8I0GEhE5ctY-Owcq-88" value="Type: Text, File, Video, Image" style="text;strokeColor=none;fillColor=none;align=left;verticalAlign=middle;spacingLeft=4;spacingRight=4;overflow=hidden;points=[[0,0.5],[1,0.5]];portConstraint=eastwest;rotatable=0;whiteSpace=wrap;html=1;fontSize=14;" vertex="1" parent="Nd7j8I0GEhE5ctY-Owcq-31">
          <mxGeometry y="120" width="210" height="30" as="geometry" />
        </mxCell>
        <mxCell id="Nd7j8I0GEhE5ctY-Owcq-87" value="Status: Send, Recive, Seen" style="text;strokeColor=none;fillColor=none;align=left;verticalAlign=middle;spacingLeft=4;spacingRight=4;overflow=hidden;points=[[0,0.5],[1,0.5]];portConstraint=eastwest;rotatable=0;whiteSpace=wrap;html=1;fontSize=14;" vertex="1" parent="Nd7j8I0GEhE5ctY-Owcq-31">
          <mxGeometry y="150" width="210" height="30" as="geometry" />
        </mxCell>
        <mxCell id="Nd7j8I0GEhE5ctY-Owcq-36" value="CreateAt" style="text;strokeColor=none;fillColor=none;align=left;verticalAlign=middle;spacingLeft=4;spacingRight=4;overflow=hidden;points=[[0,0.5],[1,0.5]];portConstraint=eastwest;rotatable=0;whiteSpace=wrap;html=1;fontSize=14;" vertex="1" parent="Nd7j8I0GEhE5ctY-Owcq-31">
          <mxGeometry y="180" width="210" height="30" as="geometry" />
        </mxCell>
        <mxCell id="Nd7j8I0GEhE5ctY-Owcq-39" value="" style="endArrow=none;html=1;rounded=0;entryX=0.75;entryY=0;entryDx=0;entryDy=0;fontSize=14;" edge="1" parent="1" source="Nd7j8I0GEhE5ctY-Owcq-1" target="Nd7j8I0GEhE5ctY-Owcq-76">
          <mxGeometry width="50" height="50" relative="1" as="geometry">
            <mxPoint x="827" y="410" as="sourcePoint" />
            <mxPoint x="823" y="642" as="targetPoint" />
          </mxGeometry>
        </mxCell>
        <mxCell id="Nd7j8I0GEhE5ctY-Owcq-40" value="" style="endArrow=none;html=1;rounded=0;fontSize=14;" edge="1" parent="1" source="Nd7j8I0GEhE5ctY-Owcq-76" target="Nd7j8I0GEhE5ctY-Owcq-19">
          <mxGeometry width="50" height="50" relative="1" as="geometry">
            <mxPoint x="902" y="651" as="sourcePoint" />
            <mxPoint x="1080" y="729" as="targetPoint" />
          </mxGeometry>
        </mxCell>
        <mxCell id="Nd7j8I0GEhE5ctY-Owcq-42" value="Reaction" style="swimlane;fontStyle=0;childLayout=stackLayout;horizontal=1;startSize=30;horizontalStack=0;resizeParent=1;resizeParentMax=0;resizeLast=0;collapsible=1;marginBottom=0;whiteSpace=wrap;html=1;fontSize=14;" vertex="1" parent="1">
          <mxGeometry x="440" y="1260" width="140" height="120" as="geometry" />
        </mxCell>
        <mxCell id="Nd7j8I0GEhE5ctY-Owcq-43" value="id" style="text;strokeColor=none;fillColor=none;align=left;verticalAlign=middle;spacingLeft=4;spacingRight=4;overflow=hidden;points=[[0,0.5],[1,0.5]];portConstraint=eastwest;rotatable=0;whiteSpace=wrap;html=1;fontSize=14;" vertex="1" parent="Nd7j8I0GEhE5ctY-Owcq-42">
          <mxGeometry y="30" width="140" height="30" as="geometry" />
        </mxCell>
        <mxCell id="Nd7j8I0GEhE5ctY-Owcq-44" value="name" style="text;strokeColor=none;fillColor=none;align=left;verticalAlign=middle;spacingLeft=4;spacingRight=4;overflow=hidden;points=[[0,0.5],[1,0.5]];portConstraint=eastwest;rotatable=0;whiteSpace=wrap;html=1;fontSize=14;" vertex="1" parent="Nd7j8I0GEhE5ctY-Owcq-42">
          <mxGeometry y="60" width="140" height="30" as="geometry" />
        </mxCell>
        <mxCell id="Nd7j8I0GEhE5ctY-Owcq-49" value="type" style="text;strokeColor=none;fillColor=none;align=left;verticalAlign=middle;spacingLeft=4;spacingRight=4;overflow=hidden;points=[[0,0.5],[1,0.5]];portConstraint=eastwest;rotatable=0;whiteSpace=wrap;html=1;fontSize=14;" vertex="1" parent="Nd7j8I0GEhE5ctY-Owcq-42">
          <mxGeometry y="90" width="140" height="30" as="geometry" />
        </mxCell>
        <mxCell id="Nd7j8I0GEhE5ctY-Owcq-50" value="" style="endArrow=none;html=1;rounded=0;fontSize=14;" edge="1" parent="1" source="Nd7j8I0GEhE5ctY-Owcq-31" target="Nd7j8I0GEhE5ctY-Owcq-42">
          <mxGeometry width="50" height="50" relative="1" as="geometry">
            <mxPoint x="1090" y="640" as="sourcePoint" />
            <mxPoint x="1110" y="408" as="targetPoint" />
          </mxGeometry>
        </mxCell>
        <mxCell id="Nd7j8I0GEhE5ctY-Owcq-52" value="Setting" style="swimlane;fontStyle=0;childLayout=stackLayout;horizontal=1;startSize=30;horizontalStack=0;resizeParent=1;resizeParentMax=0;resizeLast=0;collapsible=1;marginBottom=0;whiteSpace=wrap;html=1;fontSize=14;" vertex="1" parent="1">
          <mxGeometry x="1090" y="240" width="140" height="180" as="geometry">
            <mxRectangle x="350" y="320" width="250" height="140" as="alternateBounds" />
          </mxGeometry>
        </mxCell>
        <mxCell id="Nd7j8I0GEhE5ctY-Owcq-53" value="id" style="text;strokeColor=none;fillColor=none;align=left;verticalAlign=middle;spacingLeft=4;spacingRight=4;overflow=hidden;points=[[0,0.5],[1,0.5]];portConstraint=eastwest;rotatable=0;whiteSpace=wrap;html=1;fontSize=14;" vertex="1" parent="Nd7j8I0GEhE5ctY-Owcq-52">
          <mxGeometry y="30" width="140" height="30" as="geometry" />
        </mxCell>
        <mxCell id="Nd7j8I0GEhE5ctY-Owcq-61" value="Sync" style="text;strokeColor=none;fillColor=none;align=left;verticalAlign=middle;spacingLeft=4;spacingRight=4;overflow=hidden;points=[[0,0.5],[1,0.5]];portConstraint=eastwest;rotatable=0;whiteSpace=wrap;html=1;fontSize=14;" vertex="1" parent="Nd7j8I0GEhE5ctY-Owcq-52">
          <mxGeometry y="60" width="140" height="30" as="geometry" />
        </mxCell>
        <mxCell id="Nd7j8I0GEhE5ctY-Owcq-62" value="id" style="text;strokeColor=none;fillColor=none;align=left;verticalAlign=middle;spacingLeft=4;spacingRight=4;overflow=hidden;points=[[0,0.5],[1,0.5]];portConstraint=eastwest;rotatable=0;whiteSpace=wrap;html=1;fontSize=14;" vertex="1" parent="Nd7j8I0GEhE5ctY-Owcq-52">
          <mxGeometry y="90" width="140" height="30" as="geometry" />
        </mxCell>
        <mxCell id="Nd7j8I0GEhE5ctY-Owcq-63" value="id" style="text;strokeColor=none;fillColor=none;align=left;verticalAlign=middle;spacingLeft=4;spacingRight=4;overflow=hidden;points=[[0,0.5],[1,0.5]];portConstraint=eastwest;rotatable=0;whiteSpace=wrap;html=1;fontSize=14;" vertex="1" parent="Nd7j8I0GEhE5ctY-Owcq-52">
          <mxGeometry y="120" width="140" height="30" as="geometry" />
        </mxCell>
        <mxCell id="Nd7j8I0GEhE5ctY-Owcq-64" value="id" style="text;strokeColor=none;fillColor=none;align=left;verticalAlign=middle;spacingLeft=4;spacingRight=4;overflow=hidden;points=[[0,0.5],[1,0.5]];portConstraint=eastwest;rotatable=0;whiteSpace=wrap;html=1;fontSize=14;" vertex="1" parent="Nd7j8I0GEhE5ctY-Owcq-52">
          <mxGeometry y="150" width="140" height="30" as="geometry" />
        </mxCell>
        <mxCell id="Nd7j8I0GEhE5ctY-Owcq-60" value="" style="endArrow=none;html=1;rounded=0;exitX=0.15;exitY=-0.004;exitDx=0;exitDy=0;exitPerimeter=0;fontSize=14;" edge="1" parent="1" source="Nd7j8I0GEhE5ctY-Owcq-1" target="Nd7j8I0GEhE5ctY-Owcq-52">
          <mxGeometry width="50" height="50" relative="1" as="geometry">
            <mxPoint x="1100" y="650" as="sourcePoint" />
            <mxPoint x="1171" y="377" as="targetPoint" />
          </mxGeometry>
        </mxCell>
        <mxCell id="Nd7j8I0GEhE5ctY-Owcq-65" value="id" style="text;strokeColor=none;fillColor=none;align=left;verticalAlign=middle;spacingLeft=4;spacingRight=4;overflow=hidden;points=[[0,0.5],[1,0.5]];portConstraint=eastwest;rotatable=0;whiteSpace=wrap;html=1;fontSize=14;" vertex="1" parent="1">
          <mxGeometry x="-120" y="350" width="140" height="30" as="geometry" />
        </mxCell>
        <mxCell id="Nd7j8I0GEhE5ctY-Owcq-66" value="Friend" style="swimlane;fontStyle=0;childLayout=stackLayout;horizontal=1;startSize=30;horizontalStack=0;resizeParent=1;resizeParentMax=0;resizeLast=0;collapsible=1;marginBottom=0;whiteSpace=wrap;html=1;fontSize=14;" vertex="1" parent="1">
          <mxGeometry x="510" y="340" width="180" height="180" as="geometry" />
        </mxCell>
        <mxCell id="Nd7j8I0GEhE5ctY-Owcq-67" value="id" style="text;strokeColor=none;fillColor=none;align=left;verticalAlign=middle;spacingLeft=4;spacingRight=4;overflow=hidden;points=[[0,0.5],[1,0.5]];portConstraint=eastwest;rotatable=0;whiteSpace=wrap;html=1;fontSize=14;" vertex="1" parent="Nd7j8I0GEhE5ctY-Owcq-66">
          <mxGeometry y="30" width="180" height="30" as="geometry" />
        </mxCell>
        <mxCell id="Nd7j8I0GEhE5ctY-Owcq-68" value="friend Id" style="text;strokeColor=none;fillColor=none;align=left;verticalAlign=middle;spacingLeft=4;spacingRight=4;overflow=hidden;points=[[0,0.5],[1,0.5]];portConstraint=eastwest;rotatable=0;whiteSpace=wrap;html=1;fontSize=14;" vertex="1" parent="Nd7j8I0GEhE5ctY-Owcq-66">
          <mxGeometry y="60" width="180" height="30" as="geometry" />
        </mxCell>
        <mxCell id="Nd7j8I0GEhE5ctY-Owcq-73" value="Status (Normal , Block)" style="text;strokeColor=none;fillColor=none;align=left;verticalAlign=middle;spacingLeft=4;spacingRight=4;overflow=hidden;points=[[0,0.5],[1,0.5]];portConstraint=eastwest;rotatable=0;whiteSpace=wrap;html=1;fontSize=14;" vertex="1" parent="Nd7j8I0GEhE5ctY-Owcq-66">
          <mxGeometry y="90" width="180" height="30" as="geometry" />
        </mxCell>
        <mxCell id="Nd7j8I0GEhE5ctY-Owcq-74" value="CreateAt" style="text;strokeColor=none;fillColor=none;align=left;verticalAlign=middle;spacingLeft=4;spacingRight=4;overflow=hidden;points=[[0,0.5],[1,0.5]];portConstraint=eastwest;rotatable=0;whiteSpace=wrap;html=1;fontSize=14;" vertex="1" parent="Nd7j8I0GEhE5ctY-Owcq-66">
          <mxGeometry y="120" width="180" height="30" as="geometry" />
        </mxCell>
        <mxCell id="Nd7j8I0GEhE5ctY-Owcq-81" value="type: friends" style="text;strokeColor=none;fillColor=none;align=left;verticalAlign=middle;spacingLeft=4;spacingRight=4;overflow=hidden;points=[[0,0.5],[1,0.5]];portConstraint=eastwest;rotatable=0;whiteSpace=wrap;html=1;fontSize=14;" vertex="1" parent="Nd7j8I0GEhE5ctY-Owcq-66">
          <mxGeometry y="150" width="180" height="30" as="geometry" />
        </mxCell>
        <mxCell id="Nd7j8I0GEhE5ctY-Owcq-75" value="" style="endArrow=none;html=1;rounded=0;entryX=1;entryY=0.5;entryDx=0;entryDy=0;exitX=-0.001;exitY=0.265;exitDx=0;exitDy=0;exitPerimeter=0;fontSize=14;" edge="1" parent="1" source="Nd7j8I0GEhE5ctY-Owcq-13" target="Nd7j8I0GEhE5ctY-Owcq-68">
          <mxGeometry width="50" height="50" relative="1" as="geometry">
            <mxPoint x="843" y="830" as="sourcePoint" />
            <mxPoint x="823" y="982" as="targetPoint" />
          </mxGeometry>
        </mxCell>
        <mxCell id="Nd7j8I0GEhE5ctY-Owcq-76" value="Conversation" style="swimlane;fontStyle=0;childLayout=stackLayout;horizontal=1;startSize=30;horizontalStack=0;resizeParent=1;resizeParentMax=0;resizeLast=0;collapsible=1;marginBottom=0;whiteSpace=wrap;html=1;fontSize=14;" vertex="1" parent="1">
          <mxGeometry x="820" y="960" width="190" height="150" as="geometry" />
        </mxCell>
        <mxCell id="Nd7j8I0GEhE5ctY-Owcq-77" value="id" style="text;strokeColor=none;fillColor=none;align=left;verticalAlign=middle;spacingLeft=4;spacingRight=4;overflow=hidden;points=[[0,0.5],[1,0.5]];portConstraint=eastwest;rotatable=0;whiteSpace=wrap;html=1;fontSize=14;" vertex="1" parent="Nd7j8I0GEhE5ctY-Owcq-76">
          <mxGeometry y="30" width="190" height="30" as="geometry" />
        </mxCell>
        <mxCell id="Nd7j8I0GEhE5ctY-Owcq-79" value="Parner (User 2)" style="text;strokeColor=none;fillColor=none;align=left;verticalAlign=middle;spacingLeft=4;spacingRight=4;overflow=hidden;points=[[0,0.5],[1,0.5]];portConstraint=eastwest;rotatable=0;whiteSpace=wrap;html=1;fontSize=14;" vertex="1" parent="Nd7j8I0GEhE5ctY-Owcq-76">
          <mxGeometry y="60" width="190" height="30" as="geometry" />
        </mxCell>
        <mxCell id="Nd7j8I0GEhE5ctY-Owcq-84" value="Stored: bool" style="text;strokeColor=none;fillColor=none;align=left;verticalAlign=middle;spacingLeft=4;spacingRight=4;overflow=hidden;points=[[0,0.5],[1,0.5]];portConstraint=eastwest;rotatable=0;whiteSpace=wrap;html=1;fontSize=14;" vertex="1" parent="Nd7j8I0GEhE5ctY-Owcq-76">
          <mxGeometry y="90" width="190" height="30" as="geometry" />
        </mxCell>
        <mxCell id="Nd7j8I0GEhE5ctY-Owcq-85" value="Status" style="text;strokeColor=none;fillColor=none;align=left;verticalAlign=middle;spacingLeft=4;spacingRight=4;overflow=hidden;points=[[0,0.5],[1,0.5]];portConstraint=eastwest;rotatable=0;whiteSpace=wrap;html=1;fontSize=14;" vertex="1" parent="Nd7j8I0GEhE5ctY-Owcq-76">
          <mxGeometry y="120" width="190" height="30" as="geometry" />
        </mxCell>
        <mxCell id="Nd7j8I0GEhE5ctY-Owcq-83" value="" style="endArrow=none;html=1;rounded=0;entryX=0.567;entryY=0;entryDx=0;entryDy=0;entryPerimeter=0;fontSize=14;" edge="1" parent="1" source="Nd7j8I0GEhE5ctY-Owcq-76" target="Nd7j8I0GEhE5ctY-Owcq-31">
          <mxGeometry width="50" height="50" relative="1" as="geometry">
            <mxPoint x="890" y="729" as="sourcePoint" />
            <mxPoint x="755" y="880" as="targetPoint" />
          </mxGeometry>
        </mxCell>
        <mxCell id="Nd7j8I0GEhE5ctY-Owcq-89" value="Notify" style="swimlane;fontStyle=0;childLayout=stackLayout;horizontal=1;startSize=30;horizontalStack=0;resizeParent=1;resizeParentMax=0;resizeLast=0;collapsible=1;marginBottom=0;whiteSpace=wrap;html=1;fontSize=14;" vertex="1" parent="1">
          <mxGeometry x="440" y="890" width="190" height="120" as="geometry" />
        </mxCell>
        <mxCell id="Nd7j8I0GEhE5ctY-Owcq-90" value="id" style="text;strokeColor=none;fillColor=none;align=left;verticalAlign=middle;spacingLeft=4;spacingRight=4;overflow=hidden;points=[[0,0.5],[1,0.5]];portConstraint=eastwest;rotatable=0;whiteSpace=wrap;html=1;fontSize=14;" vertex="1" parent="Nd7j8I0GEhE5ctY-Owcq-89">
          <mxGeometry y="30" width="190" height="30" as="geometry" />
        </mxCell>
        <mxCell id="Nd7j8I0GEhE5ctY-Owcq-93" value="Status" style="text;strokeColor=none;fillColor=none;align=left;verticalAlign=middle;spacingLeft=4;spacingRight=4;overflow=hidden;points=[[0,0.5],[1,0.5]];portConstraint=eastwest;rotatable=0;whiteSpace=wrap;html=1;fontSize=14;" vertex="1" parent="Nd7j8I0GEhE5ctY-Owcq-89">
          <mxGeometry y="60" width="190" height="30" as="geometry" />
        </mxCell>
        <mxCell id="Nd7j8I0GEhE5ctY-Owcq-95" value="Until" style="text;strokeColor=none;fillColor=none;align=left;verticalAlign=middle;spacingLeft=4;spacingRight=4;overflow=hidden;points=[[0,0.5],[1,0.5]];portConstraint=eastwest;rotatable=0;whiteSpace=wrap;html=1;fontSize=14;" vertex="1" parent="Nd7j8I0GEhE5ctY-Owcq-89">
          <mxGeometry y="90" width="190" height="30" as="geometry" />
        </mxCell>
        <mxCell id="Nd7j8I0GEhE5ctY-Owcq-94" value="" style="endArrow=none;html=1;rounded=0;entryX=0.991;entryY=0.185;entryDx=0;entryDy=0;fontSize=14;entryPerimeter=0;" edge="1" parent="1" target="Nd7j8I0GEhE5ctY-Owcq-89">
          <mxGeometry width="50" height="50" relative="1" as="geometry">
            <mxPoint x="960" y="850" as="sourcePoint" />
            <mxPoint x="675" y="975" as="targetPoint" />
          </mxGeometry>
        </mxCell>
        <mxCell id="Nd7j8I0GEhE5ctY-Owcq-96" value="Thinking Post" style="swimlane;fontStyle=0;childLayout=stackLayout;horizontal=1;startSize=30;horizontalStack=0;resizeParent=1;resizeParentMax=0;resizeLast=0;collapsible=1;marginBottom=0;whiteSpace=wrap;html=1;fontSize=14;" vertex="1" parent="1">
          <mxGeometry x="510" y="620" width="140" height="120" as="geometry" />
        </mxCell>
        <mxCell id="Nd7j8I0GEhE5ctY-Owcq-97" value="id" style="text;strokeColor=none;fillColor=none;align=left;verticalAlign=middle;spacingLeft=4;spacingRight=4;overflow=hidden;points=[[0,0.5],[1,0.5]];portConstraint=eastwest;rotatable=0;whiteSpace=wrap;html=1;fontSize=14;" vertex="1" parent="Nd7j8I0GEhE5ctY-Owcq-96">
          <mxGeometry y="30" width="140" height="30" as="geometry" />
        </mxCell>
        <mxCell id="Nd7j8I0GEhE5ctY-Owcq-98" value="Message" style="text;strokeColor=none;fillColor=none;align=left;verticalAlign=middle;spacingLeft=4;spacingRight=4;overflow=hidden;points=[[0,0.5],[1,0.5]];portConstraint=eastwest;rotatable=0;whiteSpace=wrap;html=1;fontSize=14;" vertex="1" parent="Nd7j8I0GEhE5ctY-Owcq-96">
          <mxGeometry y="60" width="140" height="30" as="geometry" />
        </mxCell>
        <mxCell id="Nd7j8I0GEhE5ctY-Owcq-103" value="Create At" style="text;strokeColor=none;fillColor=none;align=left;verticalAlign=middle;spacingLeft=4;spacingRight=4;overflow=hidden;points=[[0,0.5],[1,0.5]];portConstraint=eastwest;rotatable=0;whiteSpace=wrap;html=1;fontSize=14;" vertex="1" parent="Nd7j8I0GEhE5ctY-Owcq-96">
          <mxGeometry y="90" width="140" height="30" as="geometry" />
        </mxCell>
        <mxCell id="Nd7j8I0GEhE5ctY-Owcq-104" value="" style="endArrow=none;html=1;rounded=0;entryX=0.006;entryY=0.142;entryDx=0;entryDy=0;fontSize=14;exitX=1.006;exitY=0.177;exitDx=0;exitDy=0;exitPerimeter=0;entryPerimeter=0;" edge="1" parent="1" source="Nd7j8I0GEhE5ctY-Owcq-98" target="Nd7j8I0GEhE5ctY-Owcq-14">
          <mxGeometry width="50" height="50" relative="1" as="geometry">
            <mxPoint x="1030" y="655" as="sourcePoint" />
            <mxPoint x="1180" y="665" as="targetPoint" />
          </mxGeometry>
        </mxCell>
      </root>
    </mxGraphModel>
  </diagram>
</mxfile>
